<svg xmlns="http://www.w3.org/2000/svg" viewBox="0 0 256 256" fill="#646cd3" id="Chat--Streamline-Phosphor">
  <desc>
    Chat Streamline Icon: https://streamlinehq.com
  </desc>
  <path d="M234.1416 12.2094H21.8588c-10.6582 0 -19.2984 8.6402 -19.2984 19.2984v192.9844c-0.0455 7.5169 4.3212 14.3619 11.1569 17.4892 2.5501 1.1874 5.3284 1.8048 8.1415 1.8092 4.5303 -0.0108 8.9104 -1.6261 12.363 -4.5593l0.1086 -0.0844 39.3929 -33.9532h160.4183c10.6579 -0.0004 19.2984 -8.6405 19.2984 -19.2984V31.5078c0 -10.6579 -8.6405 -19.2979 -19.2984 -19.2984ZM21.8588 224.4922Zm212.2828 -38.5969H70.1049c-2.3169 0.0012 -4.5561 0.8361 -6.3082 2.352l-41.9379 36.2449V31.5078h212.2828Z" stroke-width="1"></path>
</svg>